<?xml version="1.0" encoding="utf-8"?>
<!-- Generator: Adobe Illustrator 18.1.1, SVG Export Plug-In . SVG Version: 6.00 Build 0)  -->
<svg version="1.1" id="Layer_1" xmlns="http://www.w3.org/2000/svg" xmlns:xlink="http://www.w3.org/1999/xlink" x="0px" y="0px"
	 width="32px" height="25px" viewBox="-379 294 32 25" enable-background="new -379 294 32 25" xml:space="preserve">
<title>Fill 1</title>
<desc>Created with Sketch.</desc>
<path id="Page-1" d="M-375.5,301.9v12.9c0,0.4,0.3,0.7,0.7,0.7s0.7-0.3,0.7-0.7v-12.9c0-0.4-0.3-0.7-0.7-0.7
	S-375.5,301.5-375.5,301.9z M-371.7,317.6h21.1c1.3,0,2.3-1,2.3-2.3v-20h-22.2v19.4C-370.6,315.8-371,316.9-371.7,317.6
	L-371.7,317.6z M-379,314.8v-13c0-0.4,0.3-0.7,0.7-0.7c0.4,0,0.7,0.3,0.7,0.7v13c0.1,1.6,1.4,2.8,3,2.8c1.5-0.1,2.7-1.3,2.8-2.8
	v-20.1c0-0.4,0.3-0.7,0.7-0.7h23.6c0.4,0,0.7,0.3,0.7,0.7v20.7c0,2-1.6,3.6-3.6,3.6c0,0,0,0,0,0h-24.2
	C-377.1,319-379,317.1-379,314.8z M-358,309.4h5.2v-5.9h-5.2V309.4z M-351.5,302.8v7.3c0,0.4-0.3,0.7-0.7,0.7h-6.5
	c-0.4,0-0.7-0.3-0.7-0.7v-7.3c0-0.4,0.3-0.7,0.7-0.7h6.5C-351.8,302.1-351.5,302.4-351.5,302.8L-351.5,302.8z M-352.1,313h-14.7
	c-0.4,0-0.7,0.3-0.7,0.7c0,0.4,0.3,0.7,0.7,0.7h14.7c0.4,0,0.7-0.3,0.7-0.7C-351.5,313.3-351.8,313-352.1,313z M-366.8,310.7h4.4
	c0.4,0,0.7-0.3,0.7-0.7c0-0.4-0.3-0.7-0.7-0.7h-4.4c-0.4,0-0.7,0.3-0.7,0.7C-367.5,310.4-367.2,310.7-366.8,310.7z M-366.8,307.1
	h4.4c0.4,0,0.7-0.3,0.7-0.7c0-0.4-0.3-0.7-0.7-0.7h-4.4c-0.4,0-0.7,0.3-0.7,0.7C-367.5,306.8-367.2,307.1-366.8,307.1z
	 M-366.8,303.5h4.4c0.4,0,0.7-0.3,0.7-0.7c0-0.4-0.3-0.7-0.7-0.7h-4.4c-0.4,0-0.7,0.3-0.7,0.7C-367.5,303.2-367.2,303.5-366.8,303.5
	z M-351.5,299.2c0,0.4-0.3,0.7-0.7,0.7h-14.7c-0.4,0-0.7-0.3-0.7-0.7c0-0.4,0.3-0.7,0.7-0.7h14.7
	C-351.8,298.5-351.5,298.8-351.5,299.2z"/>
</svg>
