<?xml version="1.0" encoding="utf-8"?>
<!-- Generator: Adobe Illustrator 18.1.1, SVG Export Plug-In . SVG Version: 6.00 Build 0)  -->
<svg version="1.1" id="Layer_1" xmlns="http://www.w3.org/2000/svg" xmlns:xlink="http://www.w3.org/1999/xlink" x="0px" y="0px"
	 width="32px" height="32px" viewBox="-379 291 32 32" enable-background="new -379 291 32 32" xml:space="preserve">
<path d="M-347.9,294.1h-4.3v-2.3c0-0.5-0.4-0.9-0.9-0.9h-4.2c-0.5,0-0.9,0.4-0.9,0.9v2.3h-9.7v-2.3c0-0.5-0.4-0.9-0.9-0.9h-4.2
	c-0.5,0-0.9,0.4-0.9,0.9v2.3h-4.3c-0.5,0-0.9,0.4-0.9,0.9v27.1c0,0.5,0.4,0.9,0.9,0.9h30.2c0.5,0,0.9-0.4,0.9-0.9V295
	C-347,294.5-347.4,294.1-347.9,294.1z M-356.4,292.8h2.4v3.5h-2.4V292.8z M-372,295.3c0-0.1,0-0.2,0-0.3c0-0.1,0-0.2,0-0.3v-2h2.4
	v3.5h-2.4V295.3z M-348.8,321.2h-28.5v-19.1h28.5V321.2z M-348.8,300.4h-28.5v-4.5h3.5v1.2c0,0.5,0.4,0.9,0.9,0.9h4.2
	c0.5,0,0.9-0.4,0.9-0.9v-1.2h9.7v1.2c0,0.5,0.4,0.9,0.9,0.9h4.2c0.5,0,0.9-0.4,0.9-0.9v-1.2h3.5V300.4z"/>
</svg>
