<?xml version="1.0" encoding="utf-8"?>
<!-- Generator: Adobe Illustrator 18.1.1, SVG Export Plug-In . SVG Version: 6.00 Build 0)  -->
<svg version="1.1" id="Layer_1" xmlns="http://www.w3.org/2000/svg" xmlns:xlink="http://www.w3.org/1999/xlink" x="0px" y="0px"
	 width="32px" height="38px" viewBox="-379 288 32 38" enable-background="new -379 288 32 38" xml:space="preserve">
<title>Fill 1</title>
<desc>Created with Sketch.</desc>
<path id="Page-1" fill="#030404" d="M-352.4,323.6c-2,0-3.5-1.6-3.5-3.6s1.6-3.6,3.5-3.6s3.5,1.6,3.5,3.6S-350.4,323.6-352.4,323.6
	 M-370.4,313.7c-3.7,0-6.8-3.1-6.8-6.8c0-3.8,3-6.8,6.8-6.8c2.2,0,4.1,1,5.4,2.6c0,0,0,0.1,0.1,0.1c0,0,0,0.1,0.1,0.1
	c0.8,1.1,1.3,2.5,1.3,4C-363.6,310.6-366.6,313.7-370.4,313.7 M-352.4,289.9c2,0,3.5,1.6,3.5,3.6c0,2-1.6,3.6-3.5,3.6
	s-3.5-1.6-3.5-3.6C-355.9,291.5-354.3,289.9-352.4,289.9 M-352.4,314.6c-1.6,0-3,0.7-4,1.7l-6.6-5c0.8-1.3,1.3-2.9,1.3-4.5
	c0-1.6-0.4-3.2-1.2-4.5l6.8-5.1c1,1,2.3,1.6,3.8,1.6c3,0,5.4-2.4,5.4-5.4c0-3-2.4-5.4-5.4-5.4s-5.4,2.4-5.4,5.4
	c0,0.8,0.2,1.6,0.5,2.3l-6.8,5.1c-1.6-1.7-3.8-2.8-6.3-2.8c-4.8,0-8.6,3.9-8.6,8.7s3.9,8.7,8.6,8.7c2.5,0,4.7-1,6.2-2.7l6.8,5.1
	c-0.3,0.6-0.4,1.4-0.4,2.1c0,3,2.4,5.4,5.4,5.4s5.4-2.4,5.4-5.4C-347,317.1-349.4,314.6-352.4,314.6"/>
</svg>
