<?xml version="1.0" encoding="utf-8"?>
<!-- Generator: Adobe Illustrator 18.1.1, SVG Export Plug-In . SVG Version: 6.00 Build 0)  -->
<svg version="1.1" id="Layer_1" xmlns="http://www.w3.org/2000/svg" xmlns:xlink="http://www.w3.org/1999/xlink" x="0px" y="0px"
	 width="29px" height="42px" viewBox="-381 286 29 42" enable-background="new -381 286 29 42" xml:space="preserve">
<title>Fill 1</title>
<desc>Created with Sketch.</desc>
<path id="Page-1" d="M-366.5,296.1c-2.4,0-4.4,2-4.4,4.4c0,2.4,2,4.4,4.4,4.4s4.4-2,4.4-4.4C-362.1,298.1-364.1,296.1-366.5,296.1
	 M-366.5,306.9c-3.5,0-6.4-2.9-6.4-6.4s2.9-6.4,6.4-6.4s6.4,2.9,6.4,6.4S-363,306.9-366.5,306.9 M-366.5,288
	c-6.9,0-12.5,5.6-12.5,12.5c0,2.9,2.3,8.1,6.6,15.1c2.3,3.8,4.7,7.2,5.9,8.9c1.2-1.7,3.6-5.1,5.9-8.9c4.3-7,6.6-12.2,6.6-15.1
	C-354,293.6-359.6,288-366.5,288 M-366.5,327.2c-0.3,0-0.6-0.1-0.8-0.4c0,0-3.4-4.6-6.8-10.1c-4.6-7.4-6.9-12.9-6.9-16.1
	c0-8,6.5-14.5,14.5-14.5s14.5,6.5,14.5,14.5c0,3.3-2.3,8.7-6.9,16.1c-3.4,5.5-6.8,10.1-6.8,10.1C-365.9,327-366.2,327.2-366.5,327.2
	"/>
</svg>
