<?xml version="1.0" encoding="utf-8"?>
<!-- Generator: Adobe Illustrator 18.1.1, SVG Export Plug-In . SVG Version: 6.00 Build 0)  -->
<svg version="1.1" id="Layer_1" xmlns="http://www.w3.org/2000/svg" xmlns:xlink="http://www.w3.org/1999/xlink" x="0px" y="0px"
	 width="245.7px" height="68.2px" viewBox="-544 544 245.7 68.2" enable-background="new -544 544 245.7 68.2" xml:space="preserve"
	>
<title>Group 3</title>
<desc>Created with Sketch.</desc>
<path id="Page-1_1_" fill="#FFFFFF" d="M-500.5,565.2h-33c0.1,0.4,0.5,0.9,1.5,0.9h30C-501,566.2-500.7,565.6-500.5,565.2z
	 M-527,572.8c0.1-0.4,0.3-0.8,0.7-0.8c0.6,0,3,1.1,4.2,4.4c0.1,0.2,0.2,0.4,0.5,0.5c0.5,0.2,1.4,0,1.7-0.1l0,0
	c-0.1-0.5-1.2-3.9-3.9-6.3l0,0l-0.1-0.1c-1.6-1.3-3.2-1.8-4.5-1.3c-0.4,0.2-0.8,0.4-0.9,0.8c-0.2,0.4-0.1,0.9,0.1,1.3
	c0.3,0.7,1.1,1,1.8,0.7c0.5-0.2,0.8-0.9,0.5-1.4c-0.2-0.4-0.7-0.6-1-0.4l0,0c0.4-0.2,0.8,0,0.9,0.3c0.2,0.4,0,0.9-0.4,1.1
	c-0.2,0.1-0.5,0.1-0.7,0c-0.2-0.1-0.4-0.3-0.5-0.5c-0.3-0.6,0-1.2,0.5-1.5c0.7-0.3,1.5,0,1.8,0.6c0.4,0.8,0,1.8-0.8,2.1
	c-0.2,0.1-0.5,0.2-0.7,0.2l0,0h-2.2c-0.2,0-0.3,0-0.5-0.1v0.5c0,0.2,0.1,0.4,0.1,0.4h1.5h2C-527.1,573.1-527,572.9-527,572.8z
	 M-503.3,568.9c-0.3-0.1-0.7-0.2-1-0.2h-0.4c0.3,0.2,0.5,0.5,0.6,0.8c0.2,0.5,0.2,1.2-0.1,1.7c-0.1,0.2-0.2,0.4-0.4,0.6h0.8
	c0.6,0,1.1-0.3,1.3-0.8c0.2-0.4,0.2-0.9,0.1-1.3C-502.5,569.3-502.9,569.1-503.3,568.9z M-525,575c0.7,0,1.5,0.4,2.2,1.1
	c-1.1-2.6-3.1-3.5-3.4-3.5c-0.1,0.1-0.1,0.3-0.2,0.5c-0.1,0.4-0.3,0.8-0.6,0.8h-1c0.6,0.5,0.9,1.1,1,1.5
	C-526.3,575-525.5,575-525,575z M-527.6,568.2L-527.6,568.2L-527.6,568.2h21.1l0,0h0.1h2.1h2v-0.9h-29.5v0.9h2H-527.6z
	 M-529.5,571.8c-0.2-0.2-0.3-0.3-0.4-0.6c-0.3-0.6-0.3-1.2-0.1-1.7c0.1-0.3,0.3-0.6,0.6-0.8h-0.4c-0.3,0-0.7,0.1-1,0.2
	c-0.4,0.2-0.8,0.4-0.9,0.8c-0.2,0.4-0.1,0.9,0.1,1.3c0.2,0.5,0.7,0.8,1.3,0.8L-529.5,571.8L-529.5,571.8z M-518.6,575.3
	c0-1.7,0-2.3,0.2-2.5c0-0.2-0.1-0.3-0.2-0.3c-0.1,0-0.2-0.1-0.2-0.2c-0.4,0.2-0.6,0.7-0.6,1.4c0,1-0.1,1.9-0.1,2.1
	c0,0.1,0.1,0.2,0.1,0.2C-519.3,575.7-519,575.4-518.6,575.3z M-508.7,568.7h-16.6c0.2,0.1,0.4,0.2,0.6,0.4h5.9h0.8h1.9h0.8h6
	C-509.1,568.9-508.9,568.8-508.7,568.7z M-507.5,573c0-0.1-0.1-0.4-0.2-0.5c-0.4,0.1-2.3,0.9-3.4,3.5c0.7-0.7,1.5-1,2.2-1
	c0.4,0,1.3,0,2,0.3c0.1-0.4,0.4-1,1-1.5h-0.9C-507.2,573.7-507.4,573.3-507.5,573z M-505.9,572.4L-505.9,572.4
	c-0.3,0-0.5-0.1-0.8-0.2c-0.8-0.4-1.1-1.3-0.8-2.1c0.3-0.7,1.1-1,1.8-0.6c0.3,0.1,0.5,0.4,0.6,0.6c0.1,0.3,0.1,0.6,0,0.9
	c-0.1,0.2-0.3,0.4-0.5,0.5c-0.2,0.1-0.5,0.1-0.7,0c-0.4-0.2-0.6-0.7-0.4-1.1c0.2-0.3,0.6-0.5,0.9-0.3l0,0c-0.4-0.2-0.9,0-1,0.4
	c-0.2,0.5,0,1.2,0.5,1.4c0.7,0.3,1.5,0,1.8-0.7c0.2-0.4,0.2-0.9,0.1-1.3c-0.2-0.4-0.5-0.7-0.9-0.8c-1.4-0.5-3,0-4.5,1.3l-0.1,0.1
	l0,0c-2.7,2.4-3.8,5.7-3.9,6.3v0.1c0.3,0.1,1.1,0.4,1.7,0.1c0.2-0.1,0.4-0.3,0.5-0.5c1.1-3.3,3.6-4.4,4.2-4.4c0.4,0,0.5,0.4,0.7,0.8
	c0,0.1,0.1,0.3,0.2,0.4h2l0,0h1.4c0,0,0.1-0.1,0.1-0.4v-0.5c-0.2,0-0.3,0.1-0.5,0.1L-505.9,572.4L-505.9,572.4z M-514,582.2v-1.3
	c0-3.2-0.6-4.5-1.4-5l0,0c0.1,0.1,0,0.3-0.1,0.4c-0.3,0.1-0.6,0.5-0.7,0.9c0,0.1-0.1,0.1-0.1,0.2c0,0.5,0.1,2.9,0.2,6.3
	C-515.6,582.8-514.9,582.3-514,582.2z M-513.3,582.1c0.1,0,0.2,0,0.3,0v-1.2c0-1.4,0.4-2.6,0.9-3.5c-0.2,0.1-0.5,0.1-0.7,0.1
	c-0.3,0-0.7-0.1-0.9-0.1c0.2,0.9,0.4,2,0.4,3.5V582.1C-513.4,582.1-513.4,582.1-513.3,582.1z M-529.5,575.4c-0.7,0-1.3,0.2-1.5,0.5
	c-0.2,0.2-0.2,0.5-0.1,0.8c0.1,0.3,0.4,0.4,0.7,0.4c0.3,0,0.4-0.1,0.4-0.1c0-0.1,0.1-0.1,0.1-0.2c0.1-0.2,0.2-0.4,0.3-0.6l0,0l0,0
	c0.2-0.3,0.4-0.5,0.6-0.6c0.1-0.1,0.3,0,0.4,0.2c0.1,0.1,0,0.3-0.2,0.4c-0.1,0-0.1,0.1-0.2,0.1c0.2,0.1,0.4,0.3,0.6,0.6v-0.1
	c0.1-0.4,0.3-0.7,0.6-1C-528.3,575.5-528.9,575.4-529.5,575.4z M-519.2,556.4c0-0.6-0.5-1.1-1.2-1.1c-0.7,0-1.2,0.4-1.2,1.1
	c0,0.6,0.4,1,1.2,1.2C-519.6,557.4-519.2,557-519.2,556.4z M-506.3,590.3c0,0,0.1-0.1,0.1-0.2h-1.1l0,0h-2.6l0,0h-3.8l0,0h-2.7l0,0
	h-1.4l0,0h-2.7l0,0h-3.8l0,0h-2.6l0,0h-1c0,0.1,0,0.1,0.1,0.2c0.1,0.1,0.2,0.1,0.3,0.1h0.5h19.8h0.5
	C-506.3,590.4-506.3,590.4-506.3,590.3z M-516.7,572.7c0.1,0.1,0.5,0.1,0.6,0v-0.1c0-0.1,0.1-0.3,0.2-0.5
	C-516.2,572.2-516.5,572.2-516.7,572.7z M-520.4,558.3c-0.9,0.3-1.4,0.7-1.4,1.4c0,0.7,0.6,1.3,1.4,1.3c0.8,0,1.4-0.5,1.4-1.3
	C-519,559-519.4,558.6-520.4,558.3z M-509.2,554.9h-1.5l-0.1,0.6h0.9v6h0.8v-6.6H-509.2z M-512.2,559.3c0-1.4-1-2.3-2.3-2.3
	c-0.4,0-0.7,0-1,0.1l0.1-1.6h2.8l0.1-0.6h-3.5l-0.1,3.3c0.5-0.3,1-0.5,1.5-0.5c1.1,0,1.7,0.7,1.7,1.6s-0.7,1.6-1.7,1.6
	c-0.6,0-1.1-0.3-1.6-0.8l-0.5,0.5c0.6,0.7,1.3,1,2.2,1C-513.3,561.7-512.2,560.6-512.2,559.3z M-518.2,559.8c0-0.9-0.4-1.4-1.3-1.8
	c0.7-0.3,1-0.9,1-1.5c0-1-0.8-1.7-1.9-1.7c-1.2,0-1.9,0.7-1.9,1.7c0,0.7,0.3,1.2,1,1.5c-0.9,0.4-1.3,1-1.3,1.8c0,1,0.9,1.9,2.2,1.9
	C-519.1,561.7-518.2,560.8-518.2,559.8z M-524.4,554.9h-1.5l-0.1,0.6h0.9v6h0.8v-6.6H-524.4z M-505.9,602.3l0.2-9.7l0,0v-0.5h-1.2
	c0,0,0.1-0.1,0.1-0.2V591h0.2c0.4,0,0.6-0.2,0.7-0.3c0.3-0.3,0.2-0.8,0.2-0.8c0-0.1-0.1-0.2-0.3-0.2h-1.1c-0.1-3.4,0.1-4.6,0.2-5
	c0.5,0.2,1.3,0.1,1.7,0c0.6-0.2,0.5-0.7,0.5-0.8c-0.4-1.4-1.3-1.7-2.1-1.7c0.1-3.7,1.4-5.1,2-5.5c0.1,0.1,0.1,0.2,0.1,0.3
	s0.1,0.1,0.1,0.2c0.1,0.3,0.5,0.4,0.9,0.4l0,0c0.5,0,1-0.2,1.3-0.8c0.1-0.5,0.1-1-0.2-1.3c-0.5-0.6-1.5-0.7-1.9-0.7
	c-0.7,0-1.3,0.1-1.8,0.3c0.2-0.5,0.6-1.1,1.5-1.4h1.4c0.4,0,0.7-0.4,0.7-0.9V572c0.3-0.2,0.6-0.5,0.7-0.8c0.3-0.6,0.3-1.2,0.1-1.7
	c-0.1-0.3-0.3-0.6-0.6-0.8h0.5c0.2,0,0.3-0.1,0.3-0.3v-1.2h0.2c0.2,0,0.3-0.1,0.3-0.3v-0.4c0.9-0.3,1.3-1.1,1.3-1.6
	c0-0.1,0-0.2-0.1-0.2c-0.1-0.1-0.1-0.1-0.2-0.1h-33.6c-0.1,0-0.1,0-0.2,0.1c-0.1,0.1-0.1,0.1-0.1,0.2c0,0.5,0.4,1.3,1.3,1.6v0.4
	c0,0.2,0.1,0.3,0.3,0.3h0.2v1.2c0,0.2,0.1,0.3,0.3,0.3h0.5c-0.3,0.2-0.5,0.5-0.6,0.8c-0.2,0.5-0.2,1.2,0.1,1.7
	c0.2,0.4,0.4,0.6,0.7,0.8v0.8c0,0.5,0.3,0.9,0.7,0.9h1.4c0.8,0.3,1.3,0.9,1.5,1.4c-0.6-0.2-1.2-0.3-1.8-0.3c-0.4,0-1.5,0.1-1.9,0.7
	c-0.3,0.3-0.3,0.8-0.2,1.3c0.2,0.6,0.8,0.8,1.2,0.8l0,0c0.4,0,0.8-0.2,0.9-0.4c0-0.1,0.1-0.1,0.1-0.2s0.1-0.2,0.1-0.3
	c0.5,0.4,1.9,1.8,2,5.5c-0.8,0.1-1.7,0.3-2.1,1.7c0,0.1-0.1,0.5,0.5,0.8c0.4,0.2,1.2,0.2,1.7,0c0.1,0.4,0.3,1.6,0.2,5h-1
	c-0.1,0-0.3,0.1-0.3,0.2s-0.1,0.5,0.2,0.8c0.1,0.1,0.3,0.3,0.7,0.3h0.2v0.9c0,0.1,0,0.1,0.1,0.2h-1v0.5l0,0l-0.2,10.4
	c-7.2-5-12.1-14.8-12.1-26.1c0-16.3,10.2-29.6,22.8-29.6c12.6,0,22.8,13.3,22.8,29.6C-494.8,587.7-499.3,597.1-505.9,602.3z
	 M-524.4,582.9c0,0.2,0,0.4,0,0.5c0,0,0,0.1,0.1,0.1C-524.4,583.3-524.4,583.1-524.4,582.9z M-524.4,589.6c0-0.6,0-2.3,0-4
	c0-1.5-0.6-2.5-1.6-2.9v0.1c0,0.1-0.1,0.3-0.2,0.3c-0.4,0.1-0.5,0.3-0.6,0.7c0,0.1,0,0.2-0.1,0.2c0.3,0.6,0.4,2.4,0.3,5.4h2.2V589.6
	z M-527.4,577c0.5,0.1,1,0,1.1-0.1c0,0,0-0.1,0.1-0.2c0.1-0.2,0.2-0.4,0.3-0.7l0,0l0,0c0.2-0.3,0.3-0.5,0.6-0.6
	c0.1-0.1,0.3,0,0.4,0.2c0.1,0.1,0,0.3-0.2,0.4c-0.1,0-0.2,0.1-0.2,0.2c0.5,0.6,1.7,2.7,1.5,9.9l0,0c0,1.5,0,2.9,0,3.5h2.4v-4.9
	c-0.6,0.1-1.3,0-1.7-0.2c-0.5-0.2-0.4-0.6-0.4-0.7c0.4-1.3,1.2-1.6,2.1-1.7v-1.2c0-3.3-2.2-5.4-3.6-5.4c-1.1,0-2.5,0.2-2.8,1.3
	C-527.8,576.9-527.7,577-527.4,577z M-525.6,576.8c0.2,0.3,0.3,0.6,0.5,0.9C-525.3,577.2-525.5,576.9-525.6,576.8L-525.6,576.8z
	 M-526.3,582.7c-0.1,0-0.3,0-0.4,0c-1,0-1.8,0.1-2.1,1.3c0,0,0.1,0.1,0.4,0.2c0.5,0.1,1,0,1.1-0.1c0-0.1,0-0.2,0.1-0.3
	C-527.2,583.5-527,582.9-526.3,582.7z M-526.6,591.6h19.3V591h-19.3V591.6z M-525,582.8c0.1-1.2,0-3.6-1-5.4
	c-0.4,0.3-1.4,0.3-1.9,0.1l0,0c0.6,0.9,1.1,2.4,1.1,4.7C-526,582.1-525.4,582.4-525,582.8z M-521.1,594.7c0-0.5-0.4-0.8-0.8-0.8
	s-0.8,0.4-0.8,0.8v0.1l0,0l-0.2,10.8c0.6,0.2,1.1,0.3,1.7,0.5L-521.1,594.7L-521.1,594.7z M-508.8,577.7c0.1-0.3,0.3-0.6,0.5-0.8
	c0,0,0,0,0-0.1C-508.5,576.9-508.6,577.2-508.8,577.7z M-508,577.4c-1,1.8-1.1,4.2-1,5.4c0.5-0.4,1.1-0.7,1.8-0.7
	c0-2.3,0.6-3.7,1.1-4.7l0,0C-506.6,577.7-507.6,577.7-508,577.4z M-517.1,569.6C-517,569.6-517,569.7-517.1,569.6
	C-517,569.7-517,569.6-517.1,569.6L-517.1,569.6z M-512.9,584.1C-512.8,584.2-512.8,584.2-512.9,584.1
	C-512.8,584.2-512.8,584.2-512.9,584.1c0.1,0,0.1,0,0.2,0c0.2,0,0.7,0.1,1.1,0c0.4-0.1,0.6-0.2,0.6-0.2c-0.4-1.2-1.2-1.3-2.4-1.3
	c-0.2,0-0.4,0-0.6,0.1c0.5,0.2,0.8,0.8,1,1.2C-512.9,584-512.9,584.1-512.9,584.1z M-508.9,575.5c-1.4,0-3.6,2.2-3.6,5.4v1.2
	c0.8,0.1,1.7,0.4,2.1,1.7c0,0.1,0.1,0.5-0.4,0.7c-0.4,0.2-1.1,0.3-1.7,0.2v4.9h2.4c0-0.6,0-2,0-3.5c-0.2-7.2,1-9.3,1.5-9.9
	c-0.1-0.1-0.1-0.2-0.2-0.2c-0.1-0.1-0.2-0.2-0.2-0.4c0.1-0.1,0.2-0.2,0.4-0.2c0.3,0.1,0.5,0.3,0.6,0.6l0,0l0,0
	c0.1,0.2,0.2,0.5,0.3,0.7c0,0.1,0.1,0.1,0.1,0.2c0.1,0,0.6,0.1,1.1,0c0.3-0.1,0.4-0.2,0.4-0.2C-506.4,575.7-507.8,575.5-508.9,575.5
	z M-509.6,582.9c0,0.2,0,0.4,0,0.6c0,0,0-0.1,0.1-0.1C-509.5,583.3-509.6,583.1-509.6,582.9z M-513.4,589.6h0.3v-5c0,0,0,0-0.1,0
	C-513.3,585.1-513.5,586.4-513.4,589.6z M-507.3,584c-0.1-0.4-0.2-0.7-0.6-0.7c-0.1,0-0.2-0.2-0.2-0.3v-0.1
	c-0.9,0.4-1.5,1.4-1.6,2.9c-0.1,1.6,0,3.3,0,4h2.1c-0.1-3,0-4.9,0.3-5.4C-507.2,584.1-507.2,584.1-507.3,584z M-511.5,593.7
	c-0.4,0-0.8,0.4-0.8,0.8l0,0v0.1l0,0l-0.2,11.1c0.5-0.2,1-0.3,1.5-0.5l0.2-10.6C-510.8,594.1-511.1,593.7-511.5,593.7z
	 M-525.5,594.6c0-0.5-0.2-0.8-0.4-0.8c-0.2,0-0.4,0.3-0.4,0.8l0,0v0.1l0,0l-0.2,9.4c0.3,0.1,0.5,0.3,0.8,0.4L-525.5,594.6
	L-525.5,594.6z M-516,594.6c0-0.5-0.4-0.8-0.8-0.8c-0.5,0-0.8,0.4-0.8,0.8l0,0v0.1l0,0l-0.3,11.8c0.1,0,0.2,0,0.4,0
	c0.4,0,0.9,0,1.3-0.1L-516,594.6L-516,594.6z M-507.6,582.7c0.7,0.2,0.8,0.8,0.9,1.1c0,0.1,0.1,0.2,0.1,0.3c0.1,0,0.6,0.1,1.1,0
	c0.3-0.1,0.4-0.2,0.5-0.2c-0.3-1.3-1.1-1.3-2.1-1.3C-507.4,582.7-507.5,582.7-507.6,582.7z M-527.4,592.6l-0.2,10.8
	c0.2,0.1,0.4,0.2,0.5,0.3l0.2-9.2l0,0l0,0v-0.1l0,0c0-0.8,0.5-1.4,1-1.4s1,0.6,1,1.4l0,0v0.1v0.1l0,0l-0.2,10.1
	c0.5,0.2,1,0.4,1.4,0.6l0.2-10.8l0,0c0-0.8,0.7-1.4,1.5-1.4s1.4,0.6,1.5,1.4l0,0v0.1v0.1l0,0l-0.3,11.4c0.7,0.1,1.4,0.2,2.2,0.3
	l0.3-11.9l0,0l0,0v-0.1l0,0c0-0.8,0.7-1.4,1.5-1.4s1.4,0.6,1.5,1.4l0,0v0.1v0.1l0,0l-0.2,11.7c0.8-0.1,1.7-0.2,2.5-0.4l0.2-11.3l0,0
	l0,0v-0.1l0,0c0-0.8,0.6-1.4,1.4-1.4c0.7,0,1.3,0.6,1.4,1.4l0,0v0.1v0.1l0,0l-0.2,10.3c0.5-0.2,0.9-0.4,1.3-0.6l0.2-9.7l0,0l0,0
	v-0.1l0,0c0-0.8,0.5-1.4,1-1.4s1,0.6,1,1.4l0,0v0.1v0.1l0,0l-0.2,8.4c0.2-0.1,0.3-0.2,0.4-0.3l0.2-10.2h-21.1V592.6z M-507.8,593.7
	c-0.2,0-0.4,0.3-0.4,0.8l0,0v0.1l0,0l-0.2,9.3c0.3-0.2,0.5-0.3,0.8-0.5l0.2-8.9C-507.4,594.1-507.6,593.7-507.8,593.7z
	 M-505.6,576.8c0.2-0.3,0.5-0.4,0.6-0.6c-0.1-0.1-0.1-0.1-0.2-0.1c-0.1-0.1-0.2-0.2-0.2-0.4c0.1-0.1,0.2-0.2,0.4-0.2
	c0.3,0.1,0.5,0.4,0.6,0.6l0,0l0,0c0.1,0.2,0.2,0.4,0.3,0.6c0,0.1,0.1,0.1,0.1,0.2c0,0,0.2,0.1,0.4,0.1c0.3,0,0.6-0.1,0.7-0.4
	c0.1-0.3,0.1-0.6-0.1-0.8c-0.2-0.3-0.8-0.5-1.5-0.5s-1.2,0.1-1.8,0.3C-505.9,576-505.7,576.3-505.6,576.8
	C-505.6,576.7-505.6,576.7-505.6,576.8z M-514.4,576c0-0.1,0-0.1,0.1-0.2c0-0.2-0.1-1.1-0.1-2.1c0-0.7-0.2-1.2-0.6-1.4
	c0,0.1-0.1,0.1-0.2,0.2c-0.1,0-0.2,0.1-0.2,0.3c0.1,0.2,0.2,0.8,0.2,2.5C-515,575.4-514.7,575.7-514.4,576z M-514.1,569.9h3.7
	c0,0,0,0,0.1-0.1c0.1-0.1,0.2-0.1,0.2-0.2h-5.2h-0.8c-0.1,0-0.2,0-0.3,0.1c-0.3,0.2-0.4,0.8-0.3,1.4c0.1,0.3,0.4,0.5,0.5,0.5l0,0
	c0.2,0,0.3,0,0.5,0c1,0,1.7,0.8,1.7,2.1c0,0.4,0,0.7,0,1c0.4-0.8,0.9-1.7,1.5-2.6h-0.9c-0.2,0-0.3-0.1-0.3-0.3s0.1-0.3,0.3-0.3h1.3
	c0.1-0.1,0.1-0.2,0.2-0.3h-1.9c-0.2,0-0.3-0.1-0.3-0.3c0-0.2,0.1-0.3,0.3-0.3h2.4c0.1-0.1,0.2-0.2,0.2-0.3h-3.1
	c-0.2,0-0.3-0.1-0.3-0.3C-514.3,570-514.2,569.9-514.1,569.9z M-517.9,572.7c0.1,0,0.5,0,0.6,0c-0.2-0.5-0.4-0.6-0.9-0.6
	C-518,572.3-518,572.5-517.9,572.7L-517.9,572.7z M-517,575c0.4,0,0.8,0,1.1,0.1c0-1,0-1.5,0-1.8c-0.3,0.1-0.8,0-1,0h-0.1h-0.1
	c-0.2,0.1-0.6,0.1-1,0c0,0.3-0.1,0.8,0,1.8C-517.7,575-517.3,575-517,575z M-517,572.1c0.1-0.1,0.1-0.2,0.2-0.2
	c-0.1-0.1-0.2-0.2-0.3-0.3c-0.1,0.1-0.1,0.2-0.2,0.3C-517.2,571.9-517.1,572-517,572.1z M-520.8,572h-0.8c0.7,0.9,1.2,1.9,1.5,2.6
	c0-0.3,0-0.6,0-1c0-1.3,0.7-2.1,1.7-2.1c0.1,0,0.3,0,0.4,0s0.4-0.2,0.5-0.5c0.2-0.7,0-1.3-0.3-1.4c-0.1-0.1-0.2-0.1-0.3-0.1h-0.8
	h-5.1c0.1,0.1,0.2,0.1,0.2,0.2c0,0,0,0,0.1,0.1h3.7c0.2,0,0.3,0.1,0.3,0.3c0,0.2-0.1,0.3-0.3,0.3h-3.1c0.1,0.1,0.2,0.2,0.2,0.3h2.3
	c0.2,0,0.3,0.1,0.3,0.3c0,0.2-0.1,0.3-0.3,0.3h-1.8c0.1,0.1,0.1,0.2,0.2,0.3h1.3c0.2,0,0.3,0.1,0.3,0.3
	C-520.6,572.1-520.6,572-520.8,572z M-520.6,582.1L-520.6,582.1v-1.2c0-1.5,0.1-2.7,0.4-3.5c-0.3,0.1-0.6,0.1-0.9,0.1
	c-0.2,0-0.5,0-0.7-0.1c0.5,0.9,0.9,2.1,0.9,3.5v1.2C-520.8,582.1-520.7,582.1-520.6,582.1z M-515.6,575.8c0.1,0,0.1,0,0.2,0
	c-0.1,0-0.1-0.1-0.2-0.1h-0.1c-0.4-0.1-0.8-0.1-1.2-0.1c-0.4,0-0.8,0-1.2,0.2c0,0,0,0-0.1,0s-0.1,0.1-0.2,0.1c0.1,0,0.1,0,0.2,0
	c0.4,0.2,0.8,0.7,1,1.2c0,0,0.2,0.1,0.4,0.1c0.2,0,0.3-0.1,0.4-0.1C-516.4,576.5-516.1,576-515.6,575.8z M-517.9,577.2
	c-0.1-0.4-0.4-0.8-0.7-0.9c-0.1-0.1-0.2-0.2-0.1-0.4l0,0c-0.3,0.2-0.6,0.6-0.8,1.1l0,0c-0.3,0.8-0.5,2-0.5,3.9v1.3
	c0.9,0.2,1.6,0.7,2.1,1.4c0-3.4,0.1-5.7,0.2-6.3C-517.8,577.3-517.9,577.3-517.9,577.2z M-517.9,589.6c0-0.6,0.1-2.3,0-4
	c-0.1-1.5-0.7-2.5-1.7-2.8l0,0c0,0.1,0,0.3-0.2,0.3c-0.3,0.1-0.5,0.5-0.7,0.9c0.4,0.8,0.5,3.3,0.4,5.6H-517.9z M-516.6,585.7
	c0-4.2-0.1-7.2-0.2-8.1c-0.1,0-0.1,0-0.2,0l0,0l0,0c-0.1,0-0.2,0-0.2,0c0,0.9-0.2,3.9-0.2,8.1c0.1,1.6,0,3.3,0,4h0.8
	C-516.6,589-516.6,587.3-516.6,585.7L-516.6,585.7z M-514.2,583.2c-0.1,0-0.2-0.2-0.2-0.3l0,0c-1,0.4-1.6,1.4-1.7,2.8
	c-0.1,1.6,0,3.3,0,4h2.1c-0.1-2.2,0-4.8,0.4-5.6C-513.7,583.7-513.9,583.3-514.2,583.2z M-520.9,589.6h0.3c0.1-3.3-0.1-4.6-0.2-5
	c0,0,0,0-0.1,0V589.6z M-520,582.7c-0.2,0-0.4-0.1-0.6-0.1c-1.2,0-2,0.1-2.4,1.3c0,0,0.2,0.1,0.6,0.2c0.6,0.1,1.2,0,1.3-0.1
	c0,0,0-0.1,0.1-0.2C-520.8,583.5-520.5,582.9-520,582.7z M-492.2,576.9c0,17.5-11.4,31.8-25.3,31.8c-14,0-25.3-14.3-25.3-31.8
	s11.4-31.8,25.3-31.8C-503.6,545.1-492.2,559.4-492.2,576.9z M-491.2,576.9c0-18.1-11.9-32.9-26.4-32.9c-14.6,0-26.4,14.8-26.4,32.9
	c0,18.1,11.9,32.9,26.4,32.9C-503,609.8-491.2,595-491.2,576.9z M-482.9,595.4h184.3v-0.2h-184.3V595.4z M-356.1,610.7h1.1v-6.2
	h-1.1V610.7z M-364,607.4v-1.9h0.4c1,0,1.5,0.3,1.5,1c0,0.6-0.5,1-1.4,1L-364,607.4L-364,607.4z M-365.1,610.7h1.1v-2.6h0.5l1.9,2.6
	h1.3l-2-2.7c0.9-0.3,1.4-0.9,1.4-1.7c0-0.5-0.3-1-0.7-1.3c-0.5-0.4-1.1-0.4-1.9-0.4h-1.4v6.1H-365.1z M-374,604.6h-1.1v3.6
	c0,1.8,1,2.8,2.6,2.8c1.5,0,2.5-1,2.5-2.8v-3.6h-1v3.6c0,1.2-0.5,1.8-1.5,1.8s-1.5-0.6-1.5-1.8V604.6z M-384.6,607.6
	c0-1.3,0.9-2.2,2-2.2s2,0.9,2,2.2c0,1.3-0.9,2.2-2,2.2C-383.8,609.9-384.6,608.9-384.6,607.6z M-385.7,607.6c0,0.9,0.3,1.7,0.9,2.3
	c0.6,0.6,1.4,0.9,2.2,0.9c0.8,0,1.6-0.3,2.2-0.9c0.6-0.6,0.9-1.4,0.9-2.3c0-0.9-0.3-1.7-0.9-2.3c-0.6-0.6-1.4-0.9-2.2-0.9
	c-0.9,0-1.8,0.5-2.4,1.3C-385.5,606.2-385.7,606.9-385.7,607.6z M-393.9,609.4l0.1,1.2c0.5,0.2,1.1,0.4,1.7,0.4
	c1.3,0,2.1-0.8,2.1-1.8c0-0.9-0.5-1.4-1.4-2l-0.4-0.3c-0.6-0.3-0.8-0.6-0.8-1s0.3-0.7,0.9-0.7c0.4,0,0.9,0.2,1.4,0.5v-1
	c-0.5-0.3-1-0.4-1.6-0.4c-1.1,0-1.9,0.7-1.9,1.6c0,0.8,0.4,1.2,1.3,1.7l0.5,0.3c0.6,0.4,0.9,0.7,0.9,1.1c0,0.5-0.4,0.9-1.1,0.9
	C-392.7,610-393.2,609.8-393.9,609.4z M-402.1,609.4l0.1,1.2c0.5,0.2,1.1,0.4,1.7,0.4c1.3,0,2.1-0.8,2.1-1.8c0-0.9-0.5-1.4-1.4-2
	l-0.4-0.3c-0.6-0.3-0.8-0.6-0.8-1s0.3-0.7,0.9-0.7c0.4,0,0.9,0.2,1.4,0.5v-1c-0.5-0.3-1-0.4-1.6-0.4c-1.1,0-1.9,0.7-1.9,1.6
	c0,0.8,0.4,1.2,1.3,1.7l0.5,0.3c0.6,0.4,0.9,0.7,0.9,1.1c0,0.5-0.4,0.9-1.1,0.9C-400.9,610-401.4,609.8-402.1,609.4z M-407.9,610.7
	h1.1v-6.2h-1.1V610.7z M-419.5,610.7h1l0.7-3.5l1.8,3.7h0.1l1.7-3.7l0.7,3.5h1.1l-1.3-6.4h-0.1l-2.2,4.5l-2.2-4.5h-0.1L-419.5,610.7
	z M-429.1,612.2h0.8l0.9-2.2h-1L-429.1,612.2z M-437.6,610.7h1v-3.9l4,4.1h0.1v-6.4h-1.1v3.9l-4-4.1h-0.1v6.4H-437.6z M-447.2,607.6
	c0-1.3,0.9-2.2,2-2.2c1.1,0,2,0.9,2,2.2c0,1.3-0.9,2.2-2,2.2C-446.3,609.8-447.2,608.9-447.2,607.6z M-448.4,607.6
	c0,0.9,0.3,1.7,0.9,2.3c0.6,0.6,1.4,0.9,2.2,0.9c0.8,0,1.6-0.3,2.2-0.9c0.6-0.6,0.9-1.4,0.9-2.3c0-0.9-0.3-1.7-0.9-2.3
	c-0.6-0.6-1.4-0.9-2.2-0.9c-1,0-1.8,0.5-2.4,1.3C-448.1,606.2-448.4,606.9-448.4,607.6z M-454.3,605.5h2.1v-0.9h-5.2v0.9h2.1v5.2
	h1.1v-5.2H-454.3z M-464.3,610.7h3.7v-1h-2.6v-5.2h-1.1L-464.3,610.7L-464.3,610.7z M-473.1,604.6h-1.1v3.6c0,1.8,1,2.8,2.6,2.8
	c1.5,0,2.5-1,2.5-2.8v-3.6h-1v3.6c0,1.2-0.5,1.8-1.5,1.8s-1.5-0.6-1.5-1.8V604.6z M-482.4,610.7h1.1V608h2.3v-0.9h-2.3v-1.6h2.6
	v-0.9h-3.6v6.1H-482.4z M-302.8,550c0-2.4-1.7-3.4-5.6-3.4h-1.3v6.9h1.7C-305.6,553.5-302.8,552.9-302.8,550z M-298.3,562.9h-3.1
	l-6.3-7.4h-2v7.4h-2.4v-18.3h4c6.5,0,7.9,2.9,7.9,5.4c0,2.6-1.8,4.6-4.6,5.2L-298.3,562.9z M-324.2,554.4h6.7v-2.2h-6.7v-5.5h7.8
	v-2.1h-10.2v18.3h10.3v-2.3h-7.9C-324.2,560.6-324.2,554.4-324.2,554.4z M-345.6,546.9h6.4V563h2.5v-16.1h6.4v-2.3h-15.2v2.3H-345.6
	z M-352.6,552.6l-1.3-0.6c-2.3-1-3.3-2-3.3-3.4c0-1.5,1.2-2.5,3-2.5c1.4,0,2.8,0.5,4.3,1.7l0.3,0.2v-2.7h-0.1
	c-1.3-0.8-2.9-1.2-4.4-1.2c-3.2,0-5.4,2-5.4,4.7c0,2.2,1.4,4,4.1,5.2l1.2,0.6c2.2,1,3.5,1.9,3.5,3.7c0,1.8-1.5,3-3.6,3
	c-1.4,0-3-0.6-5.1-1.9l-0.3-0.2l0.2,2.9h0.1c1.8,0.9,3.6,1.4,5.2,1.4c3.5,0,5.9-2.2,5.9-5.3C-348.2,555.8-349.7,553.8-352.6,552.6z
	 M-366.5,557.8l-11.8-13.8h-0.5v18.9h2.4v-13.2l11.8,13.8h0.5v-18.9h-2.4V557.8z M-386.9,562.9h2.5v-18.3h-2.5V562.9z M-395.5,544
	l-6.1,14.3l-6.1-14.3h-0.5l-3.7,18.9h2.3l2.3-11.9l5.4,12.6h0.5l5.3-12.6l2.2,12h2.5l-3.6-19H-395.5z M-428.2,546.9h6.4V563h2.5
	v-16.1h6.4v-2.3h-15.2v2.3H-428.2z M-435.2,552.6l-1.3-0.6c-2.3-1-3.3-2-3.3-3.4c0-1.5,1.2-2.5,3-2.5c1.4,0,2.8,0.5,4.3,1.7l0.3,0.2
	v-2.7h-0.1c-1.3-0.8-2.9-1.2-4.4-1.2c-3.2,0-5.4,2-5.4,4.7c0,2.2,1.4,4,4.1,5.2l1.2,0.6c2.2,1,3.5,1.9,3.5,3.7c0,1.8-1.5,3-3.6,3
	c-1.4,0-3-0.6-5.1-1.9l-0.3-0.2l0.2,2.9h0.1c1.8,0.9,3.6,1.4,5.2,1.4c3.5,0,5.9-2.2,5.9-5.3C-430.8,555.8-432.4,553.8-435.2,552.6z
	 M-454.3,554.4h6.7v-2.2h-6.7v-5.5h7.8v-2.1h-10.2v18.3h10.3v-2.3h-7.9V554.4L-454.3,554.4z M-467,557.6l-4.3-13.6h-0.5l-4.6,13.6
	l-4.1-13h-2.6l6.4,19.1h0.5l4.5-13.6l4.2,13.6h0.5l6.4-19.1h-2.5L-467,557.6z M-364.4,587v-7.6h6.2v-0.9h-6.2v-7h7.2l-0.3-0.9h-7.8
	V588h8.2l0.3-0.9L-364.4,587L-364.4,587z M-378.7,579.7h4.3v5.7c-1.2,1.3-3.2,2-5.2,2c-1.9,0-3.7-0.7-5.1-2
	c-1.8-1.6-2.8-3.8-2.8-6.3c0-4.7,3.5-8.2,8-8.2c1.7,0,3.5,0.6,5.1,1.9l0.1,0.1l0.4-0.8h-0.1c-1.6-1.3-3.5-1.9-5.6-1.9
	c-2.8,0-4.9,0.9-6.7,2.8c-1.6,1.7-2.4,4-2.4,6.2c0,2.7,1.2,5.2,3.2,7c1.6,1.4,3.5,2.1,5.9,2.1c2.2,0,4.3-0.8,6.1-2.4l0,0v-7.1h-5.3
	L-378.7,579.7L-378.7,579.7z M-402.4,579.3h6.2v-0.9h-6.2v-7h7.2l-0.3-0.9h-7.8v17.4h8.2l0.3-0.9h-7.5v-7.7H-402.4z M-418.3,570.2
	l-1,0.3v17.4h8.5l0.3-0.9h-7.9v-16.8H-418.3z M-434.1,570.2l-1,0.3v17.4h8.5l0.3-0.9h-7.9v-16.8H-434.1z M-451.6,571
	c-4.5,0-8,3.6-8,8.2s3.5,8.2,8,8.2s8-3.6,8-8.2C-443.5,574.6-447.1,571-451.6,571z M-442.5,579.2c0,2.7-1.1,5.2-3.2,7
	c-1.5,1.4-3.7,2.2-5.9,2.2c-2.2,0-4.3-0.8-5.9-2.2c-2.1-1.8-3.2-4.3-3.2-7c0-2.3,0.9-4.5,2.4-6.2c1.7-1.9,4.1-2.9,6.7-2.9
	c2.2,0,4.3,0.8,5.9,2.2C-443.6,574.1-442.5,576.5-442.5,579.2z M-467.6,585.3l0.5,0.8l0,0c-1.6,1.4-3.7,2.2-5.8,2.2
	c-2.4,0-4.3-0.7-5.9-2.1c-2.1-1.8-3.2-4.3-3.2-7c0-2.3,0.9-4.5,2.4-6.2c1.7-1.9,3.9-2.8,6.7-2.8c2.1,0,3.9,0.7,5.6,1.9h0.1l-0.5,0.8
	l-0.1-0.1c-1.5-1.2-3.3-1.8-5-1.8c-4.6,0-8,3.5-8,8.2c0,2.4,1,4.6,2.8,6.3c1.5,1.3,3.2,2,5.1,2
	C-471.2,587.4-469.4,586.7-467.6,585.3L-467.6,585.3z"/>
</svg>
